<svg xmlns="http://www.w3.org/2000/svg" width="1800" height="1200" viewBox="0 0 1800 1200"><defs><radialGradient id="g1" cx="22%" cy="18%" r="72%"><stop offset="0" stop-color="#6f365d"/><stop offset=".42" stop-color="#4b203f"/><stop offset="1" stop-color="#130f14"/></radialGradient><radialGradient id="g2" cx="86%" cy="74%" r="58%"><stop offset="0" stop-color="#632c53" stop-opacity=".78"/><stop offset="1" stop-color="#171218" stop-opacity="0"/></radialGradient><filter id="noise"><feTurbulence type="fractalNoise" baseFrequency=".72" numOctaves="4" seed="19"/><feColorMatrix values="1 0 0 0 0 0 1 0 0 0 0 0 1 0 0 0 0 0 .18 0"/></filter><filter id="blur"><feGaussianBlur stdDeviation="28"/></filter></defs><rect width="1800" height="1200" fill="#171218"/><rect width="1800" height="1200" fill="url(#g1)"/><rect width="1800" height="1200" fill="url(#g2)"/><path d="M-90 865C160 702 326 813 531 715S842 514 1055 589s341 9 515-129 279-104 370-42v782H-90Z" fill="#080709" opacity=".58"/><path d="M-60 194C180 98 309 223 485 157S788 23 969 89s306 59 474-9 285-57 425 19" fill="none" stroke="#9a5a83" stroke-opacity=".12" stroke-width="110" filter="url(#blur)"/><g fill="#f6f3ef" opacity=".9"><circle cx="135" cy="162" r="4"/><circle cx="174" cy="214" r="2"/><circle cx="244" cy="132" r="3"/><circle cx="1515" cy="210" r="3"/><circle cx="1592" cy="176" r="5"/><circle cx="1660" cy="264" r="2"/><circle cx="1392" cy="925" r="4"/><circle cx="1480" cy="982" r="2"/><circle cx="1574" cy="902" r="3"/><circle cx="324" cy="1010" r="3"/><circle cx="255" cy="945" r="5"/></g><g fill="#0a080b" opacity=".72"><circle cx="103" cy="820" r="9"/><circle cx="131" cy="846" r="4"/><circle cx="159" cy="800" r="6"/><circle cx="1692" cy="615" r="10"/><circle cx="1650" cy="646" r="4"/><circle cx="1725" cy="667" r="6"/></g><rect width="1800" height="1200" filter="url(#noise)" opacity=".48"/></svg>